<svg version="1.1" xmlns="http://www.w3.org/2000/svg"><g transform="translate(40,20)" style="filter: url(&quot;#desaturate&quot;);"><g class="serie" fill="url(#yoqlj)" stroke="black"><rect x="11" y="405" height="45" width="26"></rect><rect x="43" y="353" height="97" width="26"></rect><rect x="75" y="330" height="120" width="26"></rect><rect x="107" y="233" height="217" width="26"></rect><rect x="139" y="285" height="165" width="26"></rect><rect x="171" y="240" height="210" width="26"></rect><rect x="203" y="293" height="157" width="26"></rect><rect x="235" y="323" height="127" width="26"></rect><rect x="267" y="285" height="165" width="26"></rect><rect x="299" y="210" height="240" width="26"></rect><rect x="331" y="308" height="142" width="26"></rect><rect x="363" y="443" height="7" width="26"></rect></g><g class="serie" fill="url(#iinbe)" stroke="black"><rect x="11" y="390" height="15" width="26"></rect><rect x="43" y="300" height="53" width="26"></rect><rect x="75" y="270" height="60" width="26"></rect><rect x="107" y="210" height="23" width="26"></rect><rect x="139" y="255" height="30" width="26"></rect><rect x="171" y="173" height="67" width="26"></rect><rect x="203" y="202" height="91" width="26"></rect><rect x="235" y="248" height="75" width="26"></rect><rect x="267" y="225" height="60" width="26"></rect><rect x="299" y="165" height="45" width="26"></rect><rect x="331" y="263" height="45" width="26"></rect><rect x="363" y="443" height="0" width="26"></rect></g><g class="serie" fill="url(#wdqpv)" stroke="black"><rect x="11" y="353" height="37" width="26"></rect><rect x="43" y="278" height="22" width="26"></rect><rect x="75" y="270" height="0" width="26"></rect><rect x="107" y="165" height="45" width="26"></rect><rect x="139" y="165" height="90" width="26"></rect><rect x="171" y="158" height="15" width="26"></rect><rect x="203" y="195" height="7" width="26"></rect><rect x="235" y="225" height="23" width="26"></rect><rect x="267" y="180" height="45" width="26"></rect><rect x="299" y="120" height="45" width="26"></rect><rect x="331" y="255" height="8" width="26"></rect><rect x="363" y="443" height="0" width="26"></rect></g><g class="serie" fill="url(#czhuj)" stroke="black"><rect x="11" y="345" height="8" width="26"></rect><rect x="43" y="270" height="8" width="26"></rect><rect x="75" y="255" height="15" width="26"></rect><rect x="107" y="158" height="7" width="26"></rect><rect x="139" y="165" height="0" width="26"></rect><rect x="171" y="143" height="15" width="26"></rect><rect x="203" y="165" height="30" width="26"></rect><rect x="235" y="202" height="23" width="26"></rect><rect x="267" y="158" height="22" width="26"></rect><rect x="299" y="113" height="7" width="26"></rect><rect x="331" y="255" height="0" width="26"></rect><rect x="363" y="443" height="0" width="26"></rect></g><g class="serie" fill="url(#zmtvs)" stroke="black"><rect x="11" y="345" height="0" width="26"></rect><rect x="43" y="270" height="0" width="26"></rect><rect x="75" y="240" height="15" width="26"></rect><rect x="107" y="158" height="0" width="26"></rect><rect x="139" y="158" height="7" width="26"></rect><rect x="171" y="135" height="8" width="26"></rect><rect x="203" y="165" height="0" width="26"></rect><rect x="235" y="202" height="0" width="26"></rect><rect x="267" y="158" height="0" width="26"></rect><rect x="299" y="113" height="0" width="26"></rect><rect x="331" y="255" height="0" width="26"></rect><rect x="363" y="443" height="0" width="26"></rect></g><g class="serie" fill="url(#wppps)" stroke="black"><rect x="11" y="338" height="7" width="26"></rect><rect x="43" y="255" height="15" width="26"></rect><rect x="75" y="225" height="15" width="26"></rect><rect x="107" y="128" height="30" width="26"></rect><rect x="139" y="143" height="15" width="26"></rect><rect x="171" y="120" height="15" width="26"></rect><rect x="203" y="158" height="7" width="26"></rect><rect x="235" y="195" height="7" width="26"></rect><rect x="267" y="143" height="15" width="26"></rect><rect x="299" y="105" height="8" width="26"></rect><rect x="331" y="233" height="22" width="26"></rect><rect x="363" y="443" height="0" width="26"></rect></g><g class="serie" fill="url(#urmso)" stroke="black"><rect x="11" y="315" height="23" width="26"></rect><rect x="43" y="217" height="38" width="26"></rect><rect x="75" y="217" height="8" width="26"></rect><rect x="107" y="90" height="38" width="26"></rect><rect x="139" y="120" height="23" width="26"></rect><rect x="171" y="105" height="15" width="26"></rect><rect x="203" y="128" height="30" width="26"></rect><rect x="235" y="195" height="0" width="26"></rect><rect x="267" y="113" height="30" width="26"></rect><rect x="299" y="75" height="30" width="26"></rect><rect x="331" y="233" height="0" width="26"></rect><rect x="363" y="443" height="0" width="26"></rect></g><g class="serie" fill="url(#qwhhc)" stroke="black"><rect x="11" y="300" height="15" width="26"></rect><rect x="43" y="188" height="29" width="26"></rect><rect x="75" y="202" height="15" width="26"></rect><rect x="107" y="90" height="0" width="26"></rect><rect x="139" y="105" height="15" width="26"></rect><rect x="171" y="75" height="30" width="26"></rect><rect x="203" y="120" height="8" width="26"></rect><rect x="235" y="173" height="22" width="26"></rect><rect x="267" y="98" height="15" width="26"></rect><rect x="299" y="68" height="7" width="26"></rect><rect x="331" y="225" height="8" width="26"></rect><rect x="363" y="443" height="0" width="26"></rect></g><g class="serie" fill="url(#sbsfn)" stroke="black"><rect x="11" y="278" height="22" width="26"></rect><rect x="43" y="188" height="0" width="26"></rect><rect x="75" y="180" height="22" width="26"></rect><rect x="107" y="75" height="15" width="26"></rect><rect x="139" y="68" height="37" width="26"></rect><rect x="171" y="53" height="22" width="26"></rect><rect x="203" y="105" height="15" width="26"></rect><rect x="235" y="135" height="38" width="26"></rect><rect x="267" y="90" height="8" width="26"></rect><rect x="299" y="68" height="0" width="26"></rect><rect x="331" y="225" height="0" width="26"></rect><rect x="363" y="443" height="0" width="26"></rect></g><g class="serie" fill="url(#vntrz)" stroke="black"><rect x="11" y="278" height="0" width="26"></rect><rect x="43" y="188" height="0" width="26"></rect><rect x="75" y="180" height="0" width="26"></rect><rect x="107" y="75" height="0" width="26"></rect><rect x="139" y="68" height="0" width="26"></rect><rect x="171" y="53" height="0" width="26"></rect><rect x="203" y="105" height="0" width="26"></rect><rect x="235" y="135" height="0" width="26"></rect><rect x="267" y="83" height="7" width="26"></rect><rect x="299" y="68" height="0" width="26"></rect><rect x="331" y="225" height="0" width="26"></rect><rect x="363" y="443" height="0" width="26"></rect></g><g class="serie" fill="url(#yoqlj)" stroke="black"><rect x="11" y="278" height="0" width="26"></rect><rect x="43" y="188" height="0" width="26"></rect><rect x="75" y="180" height="0" width="26"></rect><rect x="107" y="75" height="0" width="26"></rect><rect x="139" y="68" height="0" width="26"></rect><rect x="171" y="53" height="0" width="26"></rect><rect x="203" y="105" height="0" width="26"></rect><rect x="235" y="128" height="7" width="26"></rect><rect x="267" y="83" height="0" width="26"></rect><rect x="299" y="68" height="0" width="26"></rect><rect x="331" y="225" height="0" width="26"></rect><rect x="363" y="443" height="0" width="26"></rect></g><g class="serie" fill="url(#iinbe)" stroke="black"><rect x="11" y="278" height="0" width="26"></rect><rect x="43" y="188" height="0" width="26"></rect><rect x="75" y="173" height="7" width="26"></rect><rect x="107" y="68" height="7" width="26"></rect><rect x="139" y="53" height="15" width="26"></rect><rect x="171" y="53" height="0" width="26"></rect><rect x="203" y="98" height="7" width="26"></rect><rect x="235" y="98" height="30" width="26"></rect><rect x="267" y="75" height="8" width="26"></rect><rect x="299" y="45" height="23" width="26"></rect><rect x="331" y="225" height="0" width="26"></rect><rect x="363" y="443" height="0" width="26"></rect></g><g class="serie" fill="url(#wdqpv)" stroke="black"><rect x="11" y="263" height="15" width="26"></rect><rect x="43" y="188" height="0" width="26"></rect><rect x="75" y="173" height="0" width="26"></rect><rect x="107" y="53" height="15" width="26"></rect><rect x="139" y="45" height="8" width="26"></rect><rect x="171" y="30" height="23" width="26"></rect><rect x="203" y="98" height="0" width="26"></rect><rect x="235" y="83" height="15" width="26"></rect><rect x="267" y="75" height="0" width="26"></rect><rect x="299" y="38" height="7" width="26"></rect><rect x="331" y="225" height="0" width="26"></rect><rect x="363" y="443" height="0" width="26"></rect></g><g class="serie" fill="url(#czhuj)" stroke="black"><rect x="11" y="255" height="8" width="26"></rect><rect x="43" y="188" height="0" width="26"></rect><rect x="75" y="165" height="8" width="26"></rect><rect x="107" y="53" height="0" width="26"></rect><rect x="139" y="45" height="0" width="26"></rect><rect x="171" y="30" height="0" width="26"></rect><rect x="203" y="98" height="0" width="26"></rect><rect x="235" y="83" height="0" width="26"></rect><rect x="267" y="75" height="0" width="26"></rect><rect x="299" y="38" height="0" width="26"></rect><rect x="331" y="217" height="8" width="26"></rect><rect x="363" y="443" height="0" width="26"></rect></g><g class="serie" fill="url(#zmtvs)" stroke="black"><rect x="11" y="255" height="0" width="26"></rect><rect x="43" y="188" height="0" width="26"></rect><rect x="75" y="165" height="0" width="26"></rect><rect x="107" y="45" height="8" width="26"></rect><rect x="139" y="45" height="0" width="26"></rect><rect x="171" y="30" height="0" width="26"></rect><rect x="203" y="98" height="0" width="26"></rect><rect x="235" y="83" height="0" width="26"></rect><rect x="267" y="75" height="0" width="26"></rect><rect x="299" y="30" height="8" width="26"></rect><rect x="331" y="217" height="0" width="26"></rect><rect x="363" y="443" height="0" width="26"></rect></g><g class="serie" fill="url(#wppps)" stroke="black"><rect x="11" y="255" height="0" width="26"></rect><rect x="43" y="180" height="8" width="26"></rect><rect x="75" y="165" height="0" width="26"></rect><rect x="107" y="45" height="0" width="26"></rect><rect x="139" y="38" height="7" width="26"></rect><rect x="171" y="30" height="0" width="26"></rect><rect x="203" y="98" height="0" width="26"></rect><rect x="235" y="83" height="0" width="26"></rect><rect x="267" y="75" height="0" width="26"></rect><rect x="299" y="30" height="0" width="26"></rect><rect x="331" y="217" height="0" width="26"></rect><rect x="363" y="443" height="0" width="26"></rect></g><g class="serie" fill="url(#urmso)" stroke="black"><rect x="11" y="255" height="0" width="26"></rect><rect x="43" y="180" height="0" width="26"></rect><rect x="75" y="150" height="15" width="26"></rect><rect x="107" y="45" height="0" width="26"></rect><rect x="139" y="38" height="0" width="26"></rect><rect x="171" y="30" height="0" width="26"></rect><rect x="203" y="98" height="0" width="26"></rect><rect x="235" y="83" height="0" width="26"></rect><rect x="267" y="75" height="0" width="26"></rect><rect x="299" y="15" height="15" width="26"></rect><rect x="331" y="210" height="7" width="26"></rect><rect x="363" y="443" height="0" width="26"></rect></g><g class="serie" fill="url(#qwhhc)" stroke="black"><rect x="11" y="255" height="0" width="26"></rect><rect x="43" y="180" height="0" width="26"></rect><rect x="75" y="150" height="0" width="26"></rect><rect x="107" y="45" height="0" width="26"></rect><rect x="139" y="38" height="0" width="26"></rect><rect x="171" y="30" height="0" width="26"></rect><rect x="203" y="98" height="0" width="26"></rect><rect x="235" y="75" height="8" width="26"></rect><rect x="267" y="75" height="0" width="26"></rect><rect x="299" y="15" height="0" width="26"></rect><rect x="331" y="210" height="0" width="26"></rect><rect x="363" y="443" height="0" width="26"></rect></g><g class="serie" fill="url(#sbsfn)" stroke="black"><rect x="11" y="255" height="0" width="26"></rect><rect x="43" y="180" height="0" width="26"></rect><rect x="75" y="150" height="0" width="26"></rect><rect x="107" y="45" height="0" width="26"></rect><rect x="139" y="38" height="0" width="26"></rect><rect x="171" y="23" height="7" width="26"></rect><rect x="203" y="98" height="0" width="26"></rect><rect x="235" y="75" height="0" width="26"></rect><rect x="267" y="75" height="0" width="26"></rect><rect x="299" y="15" height="0" width="26"></rect><rect x="331" y="210" height="0" width="26"></rect><rect x="363" y="443" height="0" width="26"></rect></g><g class="serie" fill="url(#vntrz)" stroke="black"><rect x="11" y="255" height="0" width="26"></rect><rect x="43" y="180" height="0" width="26"></rect><rect x="75" y="143" height="7" width="26"></rect><rect x="107" y="38" height="7" width="26"></rect><rect x="139" y="38" height="0" width="26"></rect><rect x="171" y="23" height="0" width="26"></rect><rect x="203" y="90" height="8" width="26"></rect><rect x="235" y="75" height="0" width="26"></rect><rect x="267" y="75" height="0" width="26"></rect><rect x="299" y="15" height="0" width="26"></rect><rect x="331" y="210" height="0" width="26"></rect><rect x="363" y="443" height="0" width="26"></rect></g><g class="serie" fill="url(#yoqlj)" stroke="black"><rect x="11" y="255" height="0" width="26"></rect><rect x="43" y="180" height="0" width="26"></rect><rect x="75" y="143" height="0" width="26"></rect><rect x="107" y="38" height="0" width="26"></rect><rect x="139" y="30" height="8" width="26"></rect><rect x="171" y="23" height="0" width="26"></rect><rect x="203" y="90" height="0" width="26"></rect><rect x="235" y="75" height="0" width="26"></rect><rect x="267" y="75" height="0" width="26"></rect><rect x="299" y="15" height="0" width="26"></rect><rect x="331" y="210" height="0" width="26"></rect><rect x="363" y="443" height="0" width="26"></rect></g><g class="axis axis--x" transform="translate(0,450)" fill="none" font-size="10" font-family="sans-serif" text-anchor="middle"><path class="domain" stroke="#000" d="M0.5,6V0.5H400.5V6"></path><g class="tick" opacity="1" transform="translate(24,0)"><line stroke="#000" y2="6" x1="0.5" x2="0.5"></line><text fill="#000" y="9" x="0.5" dy="0.71em">2005</text></g><g class="tick" opacity="1" transform="translate(56,0)"><line stroke="#000" y2="6" x1="0.5" x2="0.5"></line><text fill="#000" y="9" x="0.5" dy="0.71em">2006</text></g><g class="tick" opacity="1" transform="translate(88,0)"><line stroke="#000" y2="6" x1="0.5" x2="0.5"></line><text fill="#000" y="9" x="0.5" dy="0.71em">2007</text></g><g class="tick" opacity="1" transform="translate(120,0)"><line stroke="#000" y2="6" x1="0.5" x2="0.5"></line><text fill="#000" y="9" x="0.5" dy="0.71em">2008</text></g><g class="tick" opacity="1" transform="translate(152,0)"><line stroke="#000" y2="6" x1="0.5" x2="0.5"></line><text fill="#000" y="9" x="0.5" dy="0.71em">2009</text></g><g class="tick" opacity="1" transform="translate(184,0)"><line stroke="#000" y2="6" x1="0.5" x2="0.5"></line><text fill="#000" y="9" x="0.5" dy="0.71em">2010</text></g><g class="tick" opacity="1" transform="translate(216,0)"><line stroke="#000" y2="6" x1="0.5" x2="0.5"></line><text fill="#000" y="9" x="0.5" dy="0.71em">2011</text></g><g class="tick" opacity="1" transform="translate(248,0)"><line stroke="#000" y2="6" x1="0.5" x2="0.5"></line><text fill="#000" y="9" x="0.5" dy="0.71em">2012</text></g><g class="tick" opacity="1" transform="translate(280,0)"><line stroke="#000" y2="6" x1="0.5" x2="0.5"></line><text fill="#000" y="9" x="0.5" dy="0.71em">2013</text></g><g class="tick" opacity="1" transform="translate(312,0)"><line stroke="#000" y2="6" x1="0.5" x2="0.5"></line><text fill="#000" y="9" x="0.5" dy="0.71em">2014</text></g><g class="tick" opacity="1" transform="translate(344,0)"><line stroke="#000" y2="6" x1="0.5" x2="0.5"></line><text fill="#000" y="9" x="0.5" dy="0.71em">2015</text></g><g class="tick" opacity="1" transform="translate(376,0)"><line stroke="#000" y2="6" x1="0.5" x2="0.5"></line><text fill="#000" y="9" x="0.5" dy="0.71em">2016</text></g></g><g class="axis axis--y" fill="none" font-size="10" font-family="sans-serif" text-anchor="end"><path class="domain" stroke="#000" d="M-6,450.5H0.5V0.5H-6"></path><g class="tick" opacity="1" transform="translate(0,450)"><line stroke="#000" x2="-6" y1="0.5" y2="0.5"></line><text fill="#000" x="-9" y="0.5" dy="0.32em">0</text></g><g class="tick" opacity="1" transform="translate(0,413)"><line stroke="#000" x2="-6" y1="0.5" y2="0.5"></line><text fill="#000" x="-9" y="0.5" dy="0.32em">5</text></g><g class="tick" opacity="1" transform="translate(0,375)"><line stroke="#000" x2="-6" y1="0.5" y2="0.5"></line><text fill="#000" x="-9" y="0.5" dy="0.32em">10</text></g><g class="tick" opacity="1" transform="translate(0,338)"><line stroke="#000" x2="-6" y1="0.5" y2="0.5"></line><text fill="#000" x="-9" y="0.5" dy="0.32em">15</text></g><g class="tick" opacity="1" transform="translate(0,300)"><line stroke="#000" x2="-6" y1="0.5" y2="0.5"></line><text fill="#000" x="-9" y="0.5" dy="0.32em">20</text></g><g class="tick" opacity="1" transform="translate(0,263)"><line stroke="#000" x2="-6" y1="0.5" y2="0.5"></line><text fill="#000" x="-9" y="0.5" dy="0.32em">25</text></g><g class="tick" opacity="1" transform="translate(0,225)"><line stroke="#000" x2="-6" y1="0.5" y2="0.5"></line><text fill="#000" x="-9" y="0.5" dy="0.32em">30</text></g><g class="tick" opacity="1" transform="translate(0,188)"><line stroke="#000" x2="-6" y1="0.5" y2="0.5"></line><text fill="#000" x="-9" y="0.5" dy="0.32em">35</text></g><g class="tick" opacity="1" transform="translate(0,150)"><line stroke="#000" x2="-6" y1="0.5" y2="0.5"></line><text fill="#000" x="-9" y="0.5" dy="0.32em">40</text></g><g class="tick" opacity="1" transform="translate(0,113)"><line stroke="#000" x2="-6" y1="0.5" y2="0.5"></line><text fill="#000" x="-9" y="0.5" dy="0.32em">45</text></g><g class="tick" opacity="1" transform="translate(0,75)"><line stroke="#000" x2="-6" y1="0.5" y2="0.5"></line><text fill="#000" x="-9" y="0.5" dy="0.32em">50</text></g><g class="tick" opacity="1" transform="translate(0,38)"><line stroke="#000" x2="-6" y1="0.5" y2="0.5"></line><text fill="#000" x="-9" y="0.5" dy="0.32em">55</text></g><g class="tick" opacity="1" transform="translate(0,0)"><line stroke="#000" x2="-6" y1="0.5" y2="0.5"></line><text fill="#000" x="-9" y="0.5" dy="0.32em">60</text></g><text transform="translate(10,0)rotate(90)" dy="0.35em" text-anchor="start" fill="#000">Number of Papers</text></g><g class="legend-group" transform="translate(400,0)"><g class="legend" transform="translate(0,0)" style="font-style: normal; font-variant: normal; font-weight: normal; font-stretch: normal; font-size: 10px; line-height: normal; font-family: sans-serif;"><rect x="148" width="18" height="18" fill="url(#yoqlj)"></rect><text x="136" y="9" dy=".35em" text-anchor="end">Fejlesztés</text></g><g class="legend" transform="translate(0,20)" style="font-style: normal; font-variant: normal; font-weight: normal; font-stretch: normal; font-size: 10px; line-height: normal; font-family: sans-serif;"><rect x="148" width="18" height="18" fill="url(#iinbe)"></rect><text x="136" y="9" dy=".35em" text-anchor="end">OSS in organizations</text></g><g class="legend" transform="translate(0,40)" style="font-style: normal; font-variant: normal; font-weight: normal; font-stretch: normal; font-size: 10px; line-height: normal; font-family: sans-serif;"><rect x="148" width="18" height="18" fill="url(#wdqpv)"></rect><text x="136" y="9" dy=".35em" text-anchor="end">Security</text></g><g class="legend" transform="translate(0,60)" style="font-style: normal; font-variant: normal; font-weight: normal; font-stretch: normal; font-size: 10px; line-height: normal; font-family: sans-serif;"><rect x="148" width="18" height="18" fill="url(#czhuj)"></rect><text x="136" y="9" dy=".35em" text-anchor="end">Gazdaságosság</text></g><g class="legend" transform="translate(0,80)" style="font-style: normal; font-variant: normal; font-weight: normal; font-stretch: normal; font-size: 10px; line-height: normal; font-family: sans-serif;"><rect x="148" width="18" height="18" fill="url(#zmtvs)"></rect><text x="136" y="9" dy=".35em" text-anchor="end">Közösség</text></g><g class="legend" transform="translate(0,100)" style="font-style: normal; font-variant: normal; font-weight: normal; font-stretch: normal; font-size: 10px; line-height: normal; font-family: sans-serif;"><rect x="148" width="18" height="18" fill="url(#wppps)"></rect><text x="136" y="9" dy=".35em" text-anchor="end">quality assessment</text></g><g class="legend" transform="translate(0,120)" style="font-style: normal; font-variant: normal; font-weight: normal; font-stretch: normal; font-size: 10px; line-height: normal; font-family: sans-serif;"><rect x="148" width="18" height="18" fill="url(#urmso)"></rect><text x="136" y="9" dy=".35em" text-anchor="end">OSS elemek integrációja</text></g><g class="legend" transform="translate(0,140)" style="font-style: normal; font-variant: normal; font-weight: normal; font-stretch: normal; font-size: 10px; line-height: normal; font-family: sans-serif;"><rect x="148" width="18" height="18" fill="url(#qwhhc)"></rect><text x="136" y="9" dy=".35em" text-anchor="end">Licenszelés</text></g><g class="legend" transform="translate(0,160)" style="font-style: normal; font-variant: normal; font-weight: normal; font-stretch: normal; font-size: 10px; line-height: normal; font-family: sans-serif;"><rect x="148" width="18" height="18" fill="url(#sbsfn)"></rect><text x="136" y="9" dy=".35em" text-anchor="end">Általános OSS tulajdonságok</text></g><g class="legend" transform="translate(0,180)" style="font-style: normal; font-variant: normal; font-weight: normal; font-stretch: normal; font-size: 10px; line-height: normal; font-family: sans-serif;"><rect x="148" width="18" height="18" fill="url(#vntrz)"></rect><text x="136" y="9" dy=".35em" text-anchor="end">repository management</text></g><g class="legend" transform="translate(0,200)" style="font-style: normal; font-variant: normal; font-weight: normal; font-stretch: normal; font-size: 10px; line-height: normal; font-family: sans-serif;"><rect x="148" width="18" height="18" fill="url(#yoqlj)"></rect><text x="136" y="9" dy=".35em" text-anchor="end">CSS megnyitása</text></g><g class="legend" transform="translate(0,220)" style="font-style: normal; font-variant: normal; font-weight: normal; font-stretch: normal; font-size: 10px; line-height: normal; font-family: sans-serif;"><rect x="148" width="18" height="18" fill="url(#iinbe)"></rect><text x="136" y="9" dy=".35em" text-anchor="end">Software Evolution</text></g><g class="legend" transform="translate(0,240)" style="font-style: normal; font-variant: normal; font-weight: normal; font-stretch: normal; font-size: 10px; line-height: normal; font-family: sans-serif;"><rect x="148" width="18" height="18" fill="url(#wdqpv)"></rect><text x="136" y="9" dy=".35em" text-anchor="end">CSS-ból OSS átmenet</text></g><g class="legend" transform="translate(0,260)" style="font-style: normal; font-variant: normal; font-weight: normal; font-stretch: normal; font-size: 10px; line-height: normal; font-family: sans-serif;"><rect x="148" width="18" height="18" fill="url(#czhuj)"></rect><text x="136" y="9" dy=".35em" text-anchor="end">Integráció</text></g><g class="legend" transform="translate(0,280)" style="font-style: normal; font-variant: normal; font-weight: normal; font-stretch: normal; font-size: 10px; line-height: normal; font-family: sans-serif;"><rect x="148" width="18" height="18" fill="url(#zmtvs)"></rect><text x="136" y="9" dy=".35em" text-anchor="end">OSS management</text></g><g class="legend" transform="translate(0,300)" style="font-style: normal; font-variant: normal; font-weight: normal; font-stretch: normal; font-size: 10px; line-height: normal; font-family: sans-serif;"><rect x="148" width="18" height="18" fill="url(#wppps)"></rect><text x="136" y="9" dy=".35em" text-anchor="end">Felhasználás</text></g><g class="legend" transform="translate(0,320)" style="font-style: normal; font-variant: normal; font-weight: normal; font-stretch: normal; font-size: 10px; line-height: normal; font-family: sans-serif;"><rect x="148" width="18" height="18" fill="url(#urmso)"></rect><text x="136" y="9" dy=".35em" text-anchor="end">Szabályozás</text></g><g class="legend" transform="translate(0,340)" style="font-style: normal; font-variant: normal; font-weight: normal; font-stretch: normal; font-size: 10px; line-height: normal; font-family: sans-serif;"><rect x="148" width="18" height="18" fill="url(#qwhhc)"></rect><text x="136" y="9" dy=".35em" text-anchor="end">Szoftverhibák</text></g><g class="legend" transform="translate(0,360)" style="font-style: normal; font-variant: normal; font-weight: normal; font-stretch: normal; font-size: 10px; line-height: normal; font-family: sans-serif;"><rect x="148" width="18" height="18" fill="url(#sbsfn)"></rect><text x="136" y="9" dy=".35em" text-anchor="end">felhasználók</text></g><g class="legend" transform="translate(0,380)" style="font-style: normal; font-variant: normal; font-weight: normal; font-stretch: normal; font-size: 10px; line-height: normal; font-family: sans-serif;"><rect x="148" width="18" height="18" fill="url(#vntrz)"></rect><text x="136" y="9" dy=".35em" text-anchor="end">OSS kutatás</text></g><g class="legend" transform="translate(0,400)" style="font-style: normal; font-variant: normal; font-weight: normal; font-stretch: normal; font-size: 10px; line-height: normal; font-family: sans-serif;"><rect x="148" width="18" height="18" fill="url(#yoqlj)"></rect><text x="136" y="9" dy=".35em" text-anchor="end">OSS üzleti modell</text></g></g></g><defs><pattern id="yoqlj" patternUnits="userSpaceOnUse" width="5" height="5"><path d="M 0,5 l 5,-5 M -1.25,1.25 l 2.5,-2.5
M 3.75,6.25 l 2.5,-2.5" stroke-width="1" shape-rendering="auto" stroke="#343434" stroke-linecap="square"></path></pattern></defs><defs><pattern id="iinbe" patternUnits="userSpaceOnUse" width="10" height="10"><circle cx="5" cy="5" r="2" fill="transparent" stroke="#343434" stroke-width="1"></circle><circle cx="0" cy="0" r="2" fill="transparent" stroke="#343434" stroke-width="1"></circle><circle cx="0" cy="10" r="2" fill="transparent" stroke="#343434" stroke-width="1"></circle><circle cx="10" cy="0" r="2" fill="transparent" stroke="#343434" stroke-width="1"></circle><circle cx="10" cy="10" r="2" fill="transparent" stroke="#343434" stroke-width="1"></circle></pattern></defs><defs><pattern id="wdqpv" patternUnits="userSpaceOnUse" width="5" height="5"><path d="M 0,0 l 5,5 M -1.25,3.75 l 2.5,2.5
M 3.75,-1.25 l 2.5,2.5" stroke-width="1" shape-rendering="auto" stroke="#343434" stroke-linecap="square"></path></pattern></defs><defs><pattern id="czhuj" patternUnits="userSpaceOnUse" width="6.666666666666667" height="6.666666666666667"><path d="M 1.6666666666666667,1.6666666666666667l3.3333333333333335,3.3333333333333335M5,1.6666666666666667l3.3333333333333335,-3.3333333333333335
M1.6666666666666667,5l-3.3333333333333335,3.3333333333333335M5,8.333333333333334l3.3333333333333335,-3.3333333333333335
M-1.6666666666666667,1.6666666666666667l3.3333333333333335,-3.3333333333333335" fill="transparent" stroke-width="1" shape-rendering="auto" stroke="#343434" stroke-linecap="square"></path></pattern></defs><defs><pattern id="zmtvs" patternUnits="userSpaceOnUse" width="3" height="3"><path d="M 0,3 l 3,-3 M -0.75,0.75 l 1.5,-1.5
M 2.25,3.75 l 1.5,-1.5" stroke-width="1" shape-rendering="auto" stroke="#343434" stroke-linecap="square"></path></pattern></defs><defs><pattern id="wppps" patternUnits="userSpaceOnUse" width="6" height="6"><path d="M 0,6 l 6,-6 M -1.5,1.5 l 3,-3
M 4.5,7.5 l 3,-3" stroke-width="1" shape-rendering="auto" stroke="#343434" stroke-linecap="square"></path><path d="M 0,0 l 6,6 M -1.5,4.5 l 3,3
M 4.5,-1.5 l 3,3" stroke-width="1" shape-rendering="auto" stroke="#343434" stroke-linecap="square"></path></pattern></defs><defs><pattern id="urmso" patternUnits="userSpaceOnUse" width="4" height="4"><path d="M 0,2 l 4,0" stroke-width="1" shape-rendering="auto" stroke="#343434" stroke-linecap="square"></path><path d="M 2, 0 l 0, 4" stroke-width="1" shape-rendering="auto" stroke="#343434" stroke-linecap="square"></path></pattern></defs><defs><pattern id="qwhhc" patternUnits="userSpaceOnUse" width="3.3333333333333335" height="3.3333333333333335"><circle cx="1.6666666666666667" cy="1.6666666666666667" r="1" fill="#343434" stroke="#343434" stroke-width="0"></circle></pattern></defs><defs><pattern id="sbsfn" patternUnits="userSpaceOnUse" width="7" height="7"><path d="M 1.75,1.75l3.5,3.5M1.75,5.25l3.5,-3.5" fill="transparent" stroke-width="1" shape-rendering="auto" stroke="#343434" stroke-linecap="square"></path></pattern></defs><defs><pattern id="vntrz" patternUnits="userSpaceOnUse" width="7" height="7"><circle cx="3.5" cy="3.5" r="3" fill="transparent" stroke="#343434" stroke-width="1"></circle></pattern></defs><filter id="desaturate"><feColorMatrix type="matrix" values="0.3333 0.3333 0.3333 0 0 0.3333 0.3333 0.3333 0 0 0.3333 0.3333 0.3333 0 0 0 0 0 1 0"></feColorMatrix></filter></svg>