<svg version="1.1" xmlns="http://www.w3.org/2000/svg"><g transform="translate(40,20)" style="filter: url(&quot;#desaturate&quot;);"><g class="serie" fill="url(#lzvsf)" stroke="black"><rect x="13" y="450" height="0" width="29"/><rect x="49" y="450" height="0" width="29"/><rect x="85" y="450" height="0" width="29"/><rect x="121" y="424" height="26" width="29"/><rect x="157" y="437" height="13" width="29"/><rect x="193" y="450" height="0" width="29"/><rect x="229" y="450" height="0" width="29"/><rect x="265" y="437" height="13" width="29"/><rect x="301" y="437" height="13" width="29"/><rect x="337" y="450" height="0" width="29"/><rect x="373" y="437" height="13" width="29"/></g><g class="serie" fill="url(#qetwn)" stroke="black"><rect x="13" y="450" height="0" width="29"/><rect x="49" y="450" height="0" width="29"/><rect x="85" y="450" height="0" width="29"/><rect x="121" y="386" height="38" width="29"/><rect x="157" y="424" height="13" width="29"/><rect x="193" y="437" height="13" width="29"/><rect x="229" y="424" height="26" width="29"/><rect x="265" y="411" height="26" width="29"/><rect x="301" y="424" height="13" width="29"/><rect x="337" y="399" height="51" width="29"/><rect x="373" y="437" height="0" width="29"/></g><g class="serie" fill="url(#cuzqv)" stroke="black"><rect x="13" y="424" height="26" width="29"/><rect x="49" y="424" height="26" width="29"/><rect x="85" y="411" height="39" width="29"/><rect x="121" y="373" height="13" width="29"/><rect x="157" y="424" height="0" width="29"/><rect x="193" y="360" height="77" width="29"/><rect x="229" y="424" height="0" width="29"/><rect x="265" y="386" height="25" width="29"/><rect x="301" y="399" height="25" width="29"/><rect x="337" y="321" height="78" width="29"/><rect x="373" y="411" height="26" width="29"/></g><g class="serie" fill="url(#gxbyf)" stroke="black"><rect x="13" y="411" height="13" width="29"/><rect x="49" y="411" height="13" width="29"/><rect x="85" y="386" height="25" width="29"/><rect x="121" y="373" height="0" width="29"/><rect x="157" y="399" height="25" width="29"/><rect x="193" y="347" height="13" width="29"/><rect x="229" y="424" height="0" width="29"/><rect x="265" y="386" height="0" width="29"/><rect x="301" y="386" height="13" width="29"/><rect x="337" y="296" height="25" width="29"/><rect x="373" y="373" height="38" width="29"/></g><g class="serie" fill="url(#fyvxq)" stroke="black"><rect x="13" y="373" height="38" width="29"/><rect x="49" y="347" height="64" width="29"/><rect x="85" y="334" height="52" width="29"/><rect x="121" y="167" height="206" width="29"/><rect x="157" y="219" height="180" width="29"/><rect x="193" y="206" height="141" width="29"/><rect x="229" y="373" height="51" width="29"/><rect x="265" y="321" height="65" width="29"/><rect x="301" y="244" height="142" width="29"/><rect x="337" y="90" height="206" width="29"/><rect x="373" y="321" height="52" width="29"/></g><g class="serie" fill="url(#pgwro)" stroke="black"><rect x="13" y="373" height="0" width="29"/><rect x="49" y="347" height="0" width="29"/><rect x="85" y="309" height="25" width="29"/><rect x="121" y="167" height="0" width="29"/><rect x="157" y="193" height="26" width="29"/><rect x="193" y="206" height="0" width="29"/><rect x="229" y="373" height="0" width="29"/><rect x="265" y="321" height="0" width="29"/><rect x="301" y="231" height="13" width="29"/><rect x="337" y="77" height="13" width="29"/><rect x="373" y="321" height="0" width="29"/></g><g class="serie" fill="url(#vqajz)" stroke="black"><rect x="13" y="334" height="39" width="29"/><rect x="49" y="309" height="38" width="29"/><rect x="85" y="296" height="13" width="29"/><rect x="121" y="116" height="51" width="29"/><rect x="157" y="51" height="142" width="29"/><rect x="193" y="167" height="39" width="29"/><rect x="229" y="373" height="0" width="29"/><rect x="265" y="270" height="51" width="29"/><rect x="301" y="206" height="25" width="29"/><rect x="337" y="39" height="38" width="29"/><rect x="373" y="296" height="25" width="29"/></g><g class="axis axis--x" transform="translate(0,450)" fill="none" font-size="10" font-family="sans-serif" text-anchor="middle"><path class="domain" stroke="#000" d="M0.5,6V0.5H450.5V6"/><g class="tick" opacity="1" transform="translate(28,0)"><line stroke="#000" y2="6" x1="0.5" x2="0.5"/><text fill="#000" y="9" x="0.5" dy="0.71em">2005</text></g><g class="tick" opacity="1" transform="translate(64,0)"><line stroke="#000" y2="6" x1="0.5" x2="0.5"/><text fill="#000" y="9" x="0.5" dy="0.71em">2006</text></g><g class="tick" opacity="1" transform="translate(100,0)"><line stroke="#000" y2="6" x1="0.5" x2="0.5"/><text fill="#000" y="9" x="0.5" dy="0.71em">2007</text></g><g class="tick" opacity="1" transform="translate(136,0)"><line stroke="#000" y2="6" x1="0.5" x2="0.5"/><text fill="#000" y="9" x="0.5" dy="0.71em">2008</text></g><g class="tick" opacity="1" transform="translate(172,0)"><line stroke="#000" y2="6" x1="0.5" x2="0.5"/><text fill="#000" y="9" x="0.5" dy="0.71em">2009</text></g><g class="tick" opacity="1" transform="translate(208,0)"><line stroke="#000" y2="6" x1="0.5" x2="0.5"/><text fill="#000" y="9" x="0.5" dy="0.71em">2010</text></g><g class="tick" opacity="1" transform="translate(244,0)"><line stroke="#000" y2="6" x1="0.5" x2="0.5"/><text fill="#000" y="9" x="0.5" dy="0.71em">2011</text></g><g class="tick" opacity="1" transform="translate(280,0)"><line stroke="#000" y2="6" x1="0.5" x2="0.5"/><text fill="#000" y="9" x="0.5" dy="0.71em">2012</text></g><g class="tick" opacity="1" transform="translate(316,0)"><line stroke="#000" y2="6" x1="0.5" x2="0.5"/><text fill="#000" y="9" x="0.5" dy="0.71em">2013</text></g><g class="tick" opacity="1" transform="translate(352,0)"><line stroke="#000" y2="6" x1="0.5" x2="0.5"/><text fill="#000" y="9" x="0.5" dy="0.71em">2014</text></g><g class="tick" opacity="1" transform="translate(388,0)"><line stroke="#000" y2="6" x1="0.5" x2="0.5"/><text fill="#000" y="9" x="0.5" dy="0.71em">2015</text></g><g class="tick" opacity="1" transform="translate(424,0)"><line stroke="#000" y2="6" x1="0.5" x2="0.5"/><text fill="#000" y="9" x="0.5" dy="0.71em">2016</text></g></g><g class="axis axis--y" fill="none" font-size="10" font-family="sans-serif" text-anchor="end"><path class="domain" stroke="#000" d="M-6,450.5H0.5V0.5H-6"/><g class="tick" opacity="1" transform="translate(0,450)"><line stroke="#000" x2="-6" y1="0.5" y2="0.5"/><text fill="#000" x="-9" y="0.5" dy="0.32em">0</text></g><g class="tick" opacity="1" transform="translate(0,386)"><line stroke="#000" x2="-6" y1="0.5" y2="0.5"/><text fill="#000" x="-9" y="0.5" dy="0.32em">5</text></g><g class="tick" opacity="1" transform="translate(0,321)"><line stroke="#000" x2="-6" y1="0.5" y2="0.5"/><text fill="#000" x="-9" y="0.5" dy="0.32em">10</text></g><g class="tick" opacity="1" transform="translate(0,257)"><line stroke="#000" x2="-6" y1="0.5" y2="0.5"/><text fill="#000" x="-9" y="0.5" dy="0.32em">15</text></g><g class="tick" opacity="1" transform="translate(0,193)"><line stroke="#000" x2="-6" y1="0.5" y2="0.5"/><text fill="#000" x="-9" y="0.5" dy="0.32em">20</text></g><g class="tick" opacity="1" transform="translate(0,129)"><line stroke="#000" x2="-6" y1="0.5" y2="0.5"/><text fill="#000" x="-9" y="0.5" dy="0.32em">25</text></g><g class="tick" opacity="1" transform="translate(0,64)"><line stroke="#000" x2="-6" y1="0.5" y2="0.5"/><text fill="#000" x="-9" y="0.5" dy="0.32em">30</text></g><g class="tick" opacity="1" transform="translate(0,0)"><line stroke="#000" x2="-6" y1="0.5" y2="0.5"/><text fill="#000" x="-9" y="0.5" dy="0.32em">35</text></g><text transform="translate(10,0)rotate(90)" dy="0.35em" text-anchor="start" fill="#000">Number of Papers</text></g><g class="legend-group" transform="translate(450,0)"><g class="legend" transform="translate(0,0)" style="font: 10px sans-serif;"><rect x="-2" width="18" height="18" fill="url(#lzvsf)"/><text x="-14" y="9" dy=".35em" text-anchor="end">CFM</text></g><g class="legend" transform="translate(0,20)" style="font: 10px sans-serif;"><rect x="-2" width="18" height="18" fill="url(#qetwn)"/><text x="-14" y="9" dy=".35em" text-anchor="end">LCS</text></g><g class="legend" transform="translate(0,40)" style="font: 10px sans-serif;"><rect x="-2" width="18" height="18" fill="url(#cuzqv)"/><text x="-14" y="9" dy=".35em" text-anchor="end">RIM</text></g><g class="legend" transform="translate(0,60)" style="font: 10px sans-serif;"><rect x="-2" width="18" height="18" fill="url(#gxbyf)"/><text x="-14" y="9" dy=".35em" text-anchor="end">SCM</text></g><g class="legend" transform="translate(0,80)" style="font: 10px sans-serif;"><rect x="-2" width="18" height="18" fill="url(#fyvxq)"/><text x="-14" y="9" dy=".35em" text-anchor="end">SWA</text></g><g class="legend" transform="translate(0,100)" style="font: 10px sans-serif;"><rect x="-2" width="18" height="18" fill="url(#pgwro)"/><text x="-14" y="9" dy=".35em" text-anchor="end">TST</text></g><g class="legend" transform="translate(0,120)" style="font: 10px sans-serif;"><rect x="-2" width="18" height="18" fill="url(#vqajz)"/><text x="-14" y="9" dy=".35em" text-anchor="end">VUL</text></g></g></g><defs><pattern id="lzvsf" patternUnits="userSpaceOnUse" width="5" height="5"><path d="M 0,5 l 5,-5 M -1.25,1.25 l 2.5,-2.5 M 3.75,6.25 l 2.5,-2.5" stroke-width="1" shape-rendering="auto" stroke="#343434" stroke-linecap="square"/></pattern></defs><defs><pattern id="qetwn" patternUnits="userSpaceOnUse" width="10" height="10"><circle cx="5" cy="5" r="2" fill="transparent" stroke="#343434" stroke-width="1"/><circle cx="0" cy="0" r="2" fill="transparent" stroke="#343434" stroke-width="1"/><circle cx="0" cy="10" r="2" fill="transparent" stroke="#343434" stroke-width="1"/><circle cx="10" cy="0" r="2" fill="transparent" stroke="#343434" stroke-width="1"/><circle cx="10" cy="10" r="2" fill="transparent" stroke="#343434" stroke-width="1"/></pattern></defs><defs><pattern id="cuzqv" patternUnits="userSpaceOnUse" width="5" height="5"><path d="M 0,0 l 5,5 M -1.25,3.75 l 2.5,2.5 M 3.75,-1.25 l 2.5,2.5" stroke-width="1" shape-rendering="auto" stroke="#343434" stroke-linecap="square"/></pattern></defs><defs><pattern id="gxbyf" patternUnits="userSpaceOnUse" width="6.666666666666667" height="6.666666666666667"><path d="M 1.6666666666666667,1.6666666666666667l3.3333333333333335,3.3333333333333335M5,1.6666666666666667l3.3333333333333335,-3.3333333333333335 M1.6666666666666667,5l-3.3333333333333335,3.3333333333333335M5,8.333333333333334l3.3333333333333335,-3.3333333333333335 M-1.6666666666666667,1.6666666666666667l3.3333333333333335,-3.3333333333333335" fill="transparent" stroke-width="1" shape-rendering="auto" stroke="#343434" stroke-linecap="square"/></pattern></defs><defs><pattern id="fyvxq" patternUnits="userSpaceOnUse" width="8" height="8"><path d="M 2 2 l 4 0 l 0 4 l -4 0 Z" fill="transparent" stroke-width="1" shape-rendering="auto" stroke="#343434" stroke-linecap="square"/></pattern></defs><defs><pattern id="pgwro" patternUnits="userSpaceOnUse" width="6" height="6"><path d="M 0,6 l 6,-6 M -1.5,1.5 l 3,-3 M 4.5,7.5 l 3,-3" stroke-width="1" shape-rendering="auto" stroke="#343434" stroke-linecap="square"/><path d="M 0,0 l 6,6 M -1.5,4.5 l 3,3 M 4.5,-1.5 l 3,3" stroke-width="1" shape-rendering="auto" stroke="#343434" stroke-linecap="square"/></pattern></defs><defs><pattern id="vqajz" patternUnits="userSpaceOnUse" width="4" height="4"><path d="M 0,2 l 4,0" stroke-width="1" shape-rendering="auto" stroke="#343434" stroke-linecap="square"/><path d="M 2, 0 l 0, 4" stroke-width="1" shape-rendering="auto" stroke="#343434" stroke-linecap="square"/></pattern></defs><defs><pattern id="bpmxk" patternUnits="userSpaceOnUse" width="3.3333333333333335" height="3.3333333333333335"><circle cx="1.6666666666666667" cy="1.6666666666666667" r="1" fill="#343434" stroke="#343434" stroke-width="0"/></pattern></defs><defs><pattern id="phulq" patternUnits="userSpaceOnUse" width="7" height="7"><path d="M 1.75,1.75l3.5,3.5M1.75,5.25l3.5,-3.5" fill="transparent" stroke-width="1" shape-rendering="auto" stroke="#343434" stroke-linecap="square"/></pattern></defs><defs><pattern id="wchza" patternUnits="userSpaceOnUse" width="7" height="7"><circle cx="3.5" cy="3.5" r="3" fill="transparent" stroke="#343434" stroke-width="1"/></pattern></defs><defs><pattern id="hdehl" patternUnits="userSpaceOnUse" width="6" height="6"><circle cx="3" cy="3" r="1" fill="#343434" stroke="#343434" stroke-width="1"/><circle cx="0" cy="0" r="1" fill="#343434" stroke="#343434" stroke-width="1"/><circle cx="0" cy="6" r="1" fill="#343434" stroke="#343434" stroke-width="1"/><circle cx="6" cy="0" r="1" fill="#343434" stroke="#343434" stroke-width="1"/><circle cx="6" cy="6" r="1" fill="#343434" stroke="#343434" stroke-width="1"/></pattern></defs><defs><pattern id="tzcyn" patternUnits="userSpaceOnUse" width="13.125" height="7.577722283113838"><path d="M 4.375,0 l 4.375,0 l 2.1875,3.788861141556919 l -2.1875,3.788861141556919 l -4.375,0 l -2.1875,-3.788861141556919 Z M 0,3.788861141556919 l 2.1875,0 M 13.125,3.788861141556919 l -2.1875,0" fill="transparent" stroke-width="1" shape-rendering="auto" stroke="#343434" stroke-linecap="square"/></pattern></defs><filter id="desaturate"><feColorMatrix type="matrix" values="0.3333 0.3333 0.3333 0 0 0.3333 0.3333 0.3333 0 0 0.3333 0.3333 0.3333 0 0 0 0 0 1 0"/></filter></svg>