<svg version="1.1" xmlns="http://www.w3.org/2000/svg"><g transform="translate(40,20)" style="filter: url(&quot;#desaturate&quot;);"><g class="serie" fill="url(#pvaox)" stroke="black"><rect x="13" y="395" height="55" width="29"/><rect x="49" y="339" height="111" width="29"/><rect x="85" y="381" height="69" width="29"/><rect x="121" y="284" height="166" width="29"/><rect x="157" y="277" height="173" width="29"/><rect x="193" y="325" height="125" width="29"/><rect x="229" y="339" height="111" width="29"/><rect x="265" y="325" height="125" width="29"/><rect x="301" y="346" height="104" width="29"/><rect x="337" y="332" height="118" width="29"/><rect x="373" y="367" height="83" width="29"/><rect x="409" y="450" height="0" width="29"/></g><g class="serie" fill="url(#qdxcr)" stroke="black"><rect x="13" y="339" height="56" width="29"/><rect x="49" y="270" height="69" width="29"/><rect x="85" y="305" height="76" width="29"/><rect x="121" y="173" height="111" width="29"/><rect x="157" y="138" height="139" width="29"/><rect x="193" y="180" height="145" width="29"/><rect x="229" y="256" height="83" width="29"/><rect x="265" y="235" height="90" width="29"/><rect x="301" y="208" height="138" width="29"/><rect x="337" y="97" height="235" width="29"/><rect x="373" y="256" height="111" width="29"/><rect x="409" y="443" height="7" width="29"/></g><g class="serie" fill="url(#nkvxu)" stroke="black"><rect x="13" y="339" height="0" width="29"/><rect x="49" y="263" height="7" width="29"/><rect x="85" y="298" height="7" width="29"/><rect x="121" y="166" height="7" width="29"/><rect x="157" y="132" height="6" width="29"/><rect x="193" y="166" height="14" width="29"/><rect x="229" y="249" height="7" width="29"/><rect x="265" y="222" height="13" width="29"/><rect x="301" y="201" height="7" width="29"/><rect x="337" y="69" height="28" width="29"/><rect x="373" y="256" height="0" width="29"/><rect x="409" y="443" height="0" width="29"/></g><g class="serie" fill="url(#fqhmg)" stroke="black"><rect x="13" y="339" height="0" width="29"/><rect x="49" y="263" height="0" width="29"/><rect x="85" y="291" height="7" width="29"/><rect x="121" y="132" height="34" width="29"/><rect x="157" y="125" height="7" width="29"/><rect x="193" y="159" height="7" width="29"/><rect x="229" y="235" height="14" width="29"/><rect x="265" y="222" height="0" width="29"/><rect x="301" y="194" height="7" width="29"/><rect x="337" y="62" height="7" width="29"/><rect x="373" y="235" height="21" width="29"/><rect x="409" y="443" height="0" width="29"/></g><g class="serie" fill="url(#zvajt)" stroke="black"><rect x="13" y="339" height="0" width="29"/><rect x="49" y="263" height="0" width="29"/><rect x="85" y="291" height="0" width="29"/><rect x="121" y="132" height="0" width="29"/><rect x="157" y="125" height="0" width="29"/><rect x="193" y="152" height="7" width="29"/><rect x="229" y="222" height="13" width="29"/><rect x="265" y="215" height="7" width="29"/><rect x="301" y="187" height="7" width="29"/><rect x="337" y="62" height="0" width="29"/><rect x="373" y="222" height="13" width="29"/><rect x="409" y="443" height="0" width="29"/></g><g class="serie" fill="url(#nffer)" stroke="black"><rect x="13" y="332" height="7" width="29"/><rect x="49" y="249" height="14" width="29"/><rect x="85" y="284" height="7" width="29"/><rect x="121" y="118" height="14" width="29"/><rect x="157" y="125" height="0" width="29"/><rect x="193" y="152" height="0" width="29"/><rect x="229" y="222" height="0" width="29"/><rect x="265" y="215" height="0" width="29"/><rect x="301" y="180" height="7" width="29"/><rect x="337" y="62" height="0" width="29"/><rect x="373" y="222" height="0" width="29"/><rect x="409" y="443" height="0" width="29"/></g><g class="serie" fill="url(#iuxnd)" stroke="black"><rect x="13" y="332" height="0" width="29"/><rect x="49" y="249" height="0" width="29"/><rect x="85" y="284" height="0" width="29"/><rect x="121" y="111" height="7" width="29"/><rect x="157" y="125" height="0" width="29"/><rect x="193" y="138" height="14" width="29"/><rect x="229" y="208" height="14" width="29"/><rect x="265" y="201" height="14" width="29"/><rect x="301" y="180" height="0" width="29"/><rect x="337" y="48" height="14" width="29"/><rect x="373" y="208" height="14" width="29"/><rect x="409" y="443" height="0" width="29"/></g><g class="serie" fill="url(#fipfg)" stroke="black"><rect x="13" y="332" height="0" width="29"/><rect x="49" y="249" height="0" width="29"/><rect x="85" y="284" height="0" width="29"/><rect x="121" y="111" height="0" width="29"/><rect x="157" y="125" height="0" width="29"/><rect x="193" y="138" height="0" width="29"/><rect x="229" y="208" height="0" width="29"/><rect x="265" y="194" height="7" width="29"/><rect x="301" y="180" height="0" width="29"/><rect x="337" y="48" height="0" width="29"/><rect x="373" y="208" height="0" width="29"/><rect x="409" y="443" height="0" width="29"/></g><g class="serie" fill="url(#tkafj)" stroke="black"><rect x="13" y="312" height="20" width="29"/><rect x="49" y="215" height="34" width="29"/><rect x="85" y="228" height="56" width="29"/><rect x="121" y="28" height="83" width="29"/><rect x="157" y="48" height="77" width="29"/><rect x="193" y="97" height="41" width="29"/><rect x="229" y="138" height="70" width="29"/><rect x="265" y="125" height="69" width="29"/><rect x="301" y="90" height="90" width="29"/><rect x="337" y="7" height="41" width="29"/><rect x="373" y="159" height="49" width="29"/><rect x="409" y="436" height="7" width="29"/></g><g class="serie" fill="url(#hrppo)" stroke="black"><rect x="13" y="312" height="0" width="29"/><rect x="49" y="215" height="0" width="29"/><rect x="85" y="228" height="0" width="29"/><rect x="121" y="28" height="0" width="29"/><rect x="157" y="48" height="0" width="29"/><rect x="193" y="97" height="0" width="29"/><rect x="229" y="138" height="0" width="29"/><rect x="265" y="125" height="0" width="29"/><rect x="301" y="83" height="7" width="29"/><rect x="337" y="7" height="0" width="29"/><rect x="373" y="159" height="0" width="29"/><rect x="409" y="436" height="0" width="29"/></g><g class="axis axis--x" transform="translate(0,450)" fill="none" font-size="10" font-family="sans-serif" text-anchor="middle"><path class="domain" stroke="#000" d="M0.5,6V0.5H450.5V6"/><g class="tick" opacity="1" transform="translate(28,0)"><line stroke="#000" y2="6" x1="0.5" x2="0.5"/><text fill="#000" y="9" x="0.5" dy="0.71em">2005</text></g><g class="tick" opacity="1" transform="translate(64,0)"><line stroke="#000" y2="6" x1="0.5" x2="0.5"/><text fill="#000" y="9" x="0.5" dy="0.71em">2006</text></g><g class="tick" opacity="1" transform="translate(100,0)"><line stroke="#000" y2="6" x1="0.5" x2="0.5"/><text fill="#000" y="9" x="0.5" dy="0.71em">2007</text></g><g class="tick" opacity="1" transform="translate(136,0)"><line stroke="#000" y2="6" x1="0.5" x2="0.5"/><text fill="#000" y="9" x="0.5" dy="0.71em">2008</text></g><g class="tick" opacity="1" transform="translate(172,0)"><line stroke="#000" y2="6" x1="0.5" x2="0.5"/><text fill="#000" y="9" x="0.5" dy="0.71em">2009</text></g><g class="tick" opacity="1" transform="translate(208,0)"><line stroke="#000" y2="6" x1="0.5" x2="0.5"/><text fill="#000" y="9" x="0.5" dy="0.71em">2010</text></g><g class="tick" opacity="1" transform="translate(244,0)"><line stroke="#000" y2="6" x1="0.5" x2="0.5"/><text fill="#000" y="9" x="0.5" dy="0.71em">2011</text></g><g class="tick" opacity="1" transform="translate(280,0)"><line stroke="#000" y2="6" x1="0.5" x2="0.5"/><text fill="#000" y="9" x="0.5" dy="0.71em">2012</text></g><g class="tick" opacity="1" transform="translate(316,0)"><line stroke="#000" y2="6" x1="0.5" x2="0.5"/><text fill="#000" y="9" x="0.5" dy="0.71em">2013</text></g><g class="tick" opacity="1" transform="translate(352,0)"><line stroke="#000" y2="6" x1="0.5" x2="0.5"/><text fill="#000" y="9" x="0.5" dy="0.71em">2014</text></g><g class="tick" opacity="1" transform="translate(388,0)"><line stroke="#000" y2="6" x1="0.5" x2="0.5"/><text fill="#000" y="9" x="0.5" dy="0.71em">2015</text></g><g class="tick" opacity="1" transform="translate(424,0)"><line stroke="#000" y2="6" x1="0.5" x2="0.5"/><text fill="#000" y="9" x="0.5" dy="0.71em">2016</text></g></g><g class="axis axis--y" fill="none" font-size="10" font-family="sans-serif" text-anchor="end"><path class="domain" stroke="#000" d="M-6,450.5H0.5V0.5H-6"/><g class="tick" opacity="1" transform="translate(0,450)"><line stroke="#000" x2="-6" y1="0.5" y2="0.5"/><text fill="#000" x="-9" y="0.5" dy="0.32em">0</text></g><g class="tick" opacity="1" transform="translate(0,415)"><line stroke="#000" x2="-6" y1="0.5" y2="0.5"/><text fill="#000" x="-9" y="0.5" dy="0.32em">5</text></g><g class="tick" opacity="1" transform="translate(0,381)"><line stroke="#000" x2="-6" y1="0.5" y2="0.5"/><text fill="#000" x="-9" y="0.5" dy="0.32em">10</text></g><g class="tick" opacity="1" transform="translate(0,346)"><line stroke="#000" x2="-6" y1="0.5" y2="0.5"/><text fill="#000" x="-9" y="0.5" dy="0.32em">15</text></g><g class="tick" opacity="1" transform="translate(0,312)"><line stroke="#000" x2="-6" y1="0.5" y2="0.5"/><text fill="#000" x="-9" y="0.5" dy="0.32em">20</text></g><g class="tick" opacity="1" transform="translate(0,277)"><line stroke="#000" x2="-6" y1="0.5" y2="0.5"/><text fill="#000" x="-9" y="0.5" dy="0.32em">25</text></g><g class="tick" opacity="1" transform="translate(0,242)"><line stroke="#000" x2="-6" y1="0.5" y2="0.5"/><text fill="#000" x="-9" y="0.5" dy="0.32em">30</text></g><g class="tick" opacity="1" transform="translate(0,208)"><line stroke="#000" x2="-6" y1="0.5" y2="0.5"/><text fill="#000" x="-9" y="0.5" dy="0.32em">35</text></g><g class="tick" opacity="1" transform="translate(0,173)"><line stroke="#000" x2="-6" y1="0.5" y2="0.5"/><text fill="#000" x="-9" y="0.5" dy="0.32em">40</text></g><g class="tick" opacity="1" transform="translate(0,138)"><line stroke="#000" x2="-6" y1="0.5" y2="0.5"/><text fill="#000" x="-9" y="0.5" dy="0.32em">45</text></g><g class="tick" opacity="1" transform="translate(0,104)"><line stroke="#000" x2="-6" y1="0.5" y2="0.5"/><text fill="#000" x="-9" y="0.5" dy="0.32em">50</text></g><g class="tick" opacity="1" transform="translate(0,69)"><line stroke="#000" x2="-6" y1="0.5" y2="0.5"/><text fill="#000" x="-9" y="0.5" dy="0.32em">55</text></g><g class="tick" opacity="1" transform="translate(0,35)"><line stroke="#000" x2="-6" y1="0.5" y2="0.5"/><text fill="#000" x="-9" y="0.5" dy="0.32em">60</text></g><g class="tick" opacity="1" transform="translate(0,0)"><line stroke="#000" x2="-6" y1="0.5" y2="0.5"/><text fill="#000" x="-9" y="0.5" dy="0.32em">65</text></g><text transform="translate(10,0)rotate(90)" dy="0.35em" text-anchor="start" fill="#000">Number of Papers</text></g><g class="legend-group" transform="translate(450,0)"><g class="legend" transform="translate(0,0)" style="font: 10px sans-serif;"><rect x="-2" width="18" height="18" fill="url(#pvaox)"/><text x="-14" y="9" dy=".35em" text-anchor="end">CST</text></g><g class="legend" transform="translate(0,20)" style="font: 10px sans-serif;"><rect x="-2" width="18" height="18" fill="url(#qdxcr)"/><text x="-14" y="9" dy=".35em" text-anchor="end">DAN</text></g><g class="legend" transform="translate(0,40)" style="font: 10px sans-serif;"><rect x="-2" width="18" height="18" fill="url(#nkvxu)"/><text x="-14" y="9" dy=".35em" text-anchor="end">EXP</text></g><g class="legend" transform="translate(0,60)" style="font: 10px sans-serif;"><rect x="-2" width="18" height="18" fill="url(#fqhmg)"/><text x="-14" y="9" dy=".35em" text-anchor="end">FST</text></g><g class="legend" transform="translate(0,80)" style="font: 10px sans-serif;"><rect x="-2" width="18" height="18" fill="url(#zvajt)"/><text x="-14" y="9" dy=".35em" text-anchor="end">GRT</text></g><g class="legend" transform="translate(0,100)" style="font: 10px sans-serif;"><rect x="-2" width="18" height="18" fill="url(#nffer)"/><text x="-14" y="9" dy=".35em" text-anchor="end">MOA</text></g><g class="legend" transform="translate(0,120)" style="font: 10px sans-serif;"><rect x="-2" width="18" height="18" fill="url(#iuxnd)"/><text x="-14" y="9" dy=".35em" text-anchor="end">SMR</text></g><g class="legend" transform="translate(0,140)" style="font: 10px sans-serif;"><rect x="-2" width="18" height="18" fill="url(#fipfg)"/><text x="-14" y="9" dy=".35em" text-anchor="end">SMS</text></g><g class="legend" transform="translate(0,160)" style="font: 10px sans-serif;"><rect x="-2" width="18" height="18" fill="url(#tkafj)"/><text x="-14" y="9" dy=".35em" text-anchor="end">SRV</text></g><g class="legend" transform="translate(0,180)" style="font: 10px sans-serif;"><rect x="-2" width="18" height="18" fill="url(#hrppo)"/><text x="-14" y="9" dy=".35em" text-anchor="end">THW</text></g></g></g><defs><pattern id="pvaox" patternUnits="userSpaceOnUse" width="5" height="5"><path d="M 0,5 l 5,-5 M -1.25,1.25 l 2.5,-2.5 M 3.75,6.25 l 2.5,-2.5" stroke-width="1" shape-rendering="auto" stroke="#343434" stroke-linecap="square"/></pattern></defs><defs><pattern id="qdxcr" patternUnits="userSpaceOnUse" width="10" height="10"><circle cx="5" cy="5" r="2" fill="transparent" stroke="#343434" stroke-width="1"/><circle cx="0" cy="0" r="2" fill="transparent" stroke="#343434" stroke-width="1"/><circle cx="0" cy="10" r="2" fill="transparent" stroke="#343434" stroke-width="1"/><circle cx="10" cy="0" r="2" fill="transparent" stroke="#343434" stroke-width="1"/><circle cx="10" cy="10" r="2" fill="transparent" stroke="#343434" stroke-width="1"/></pattern></defs><defs><pattern id="nkvxu" patternUnits="userSpaceOnUse" width="5" height="5"><path d="M 0,0 l 5,5 M -1.25,3.75 l 2.5,2.5 M 3.75,-1.25 l 2.5,2.5" stroke-width="1" shape-rendering="auto" stroke="#343434" stroke-linecap="square"/></pattern></defs><defs><pattern id="fqhmg" patternUnits="userSpaceOnUse" width="6.666666666666667" height="6.666666666666667"><path d="M 1.6666666666666667,1.6666666666666667l3.3333333333333335,3.3333333333333335M5,1.6666666666666667l3.3333333333333335,-3.3333333333333335 M1.6666666666666667,5l-3.3333333333333335,3.3333333333333335M5,8.333333333333334l3.3333333333333335,-3.3333333333333335 M-1.6666666666666667,1.6666666666666667l3.3333333333333335,-3.3333333333333335" fill="transparent" stroke-width="1" shape-rendering="auto" stroke="#343434" stroke-linecap="square"/></pattern></defs><defs><pattern id="zvajt" patternUnits="userSpaceOnUse" width="8" height="8"><path d="M 2 2 l 4 0 l 0 4 l -4 0 Z" fill="transparent" stroke-width="1" shape-rendering="auto" stroke="#343434" stroke-linecap="square"/></pattern></defs><defs><pattern id="nffer" patternUnits="userSpaceOnUse" width="6" height="6"><path d="M 0,6 l 6,-6 M -1.5,1.5 l 3,-3 M 4.5,7.5 l 3,-3" stroke-width="1" shape-rendering="auto" stroke="#343434" stroke-linecap="square"/><path d="M 0,0 l 6,6 M -1.5,4.5 l 3,3 M 4.5,-1.5 l 3,3" stroke-width="1" shape-rendering="auto" stroke="#343434" stroke-linecap="square"/></pattern></defs><defs><pattern id="iuxnd" patternUnits="userSpaceOnUse" width="4" height="4"><path d="M 0,2 l 4,0" stroke-width="1" shape-rendering="auto" stroke="#343434" stroke-linecap="square"/><path d="M 2, 0 l 0, 4" stroke-width="1" shape-rendering="auto" stroke="#343434" stroke-linecap="square"/></pattern></defs><defs><pattern id="fipfg" patternUnits="userSpaceOnUse" width="3.3333333333333335" height="3.3333333333333335"><circle cx="1.6666666666666667" cy="1.6666666666666667" r="1" fill="#343434" stroke="#343434" stroke-width="0"/></pattern></defs><defs><pattern id="tkafj" patternUnits="userSpaceOnUse" width="7" height="7"><path d="M 1.75,1.75l3.5,3.5M1.75,5.25l3.5,-3.5" fill="transparent" stroke-width="1" shape-rendering="auto" stroke="#343434" stroke-linecap="square"/></pattern></defs><defs><pattern id="hrppo" patternUnits="userSpaceOnUse" width="7" height="7"><circle cx="3.5" cy="3.5" r="3" fill="transparent" stroke="#343434" stroke-width="1"/></pattern></defs><defs><pattern id="ivsnd" patternUnits="userSpaceOnUse" width="6" height="6"><circle cx="3" cy="3" r="1" fill="#343434" stroke="#343434" stroke-width="1"/><circle cx="0" cy="0" r="1" fill="#343434" stroke="#343434" stroke-width="1"/><circle cx="0" cy="6" r="1" fill="#343434" stroke="#343434" stroke-width="1"/><circle cx="6" cy="0" r="1" fill="#343434" stroke="#343434" stroke-width="1"/><circle cx="6" cy="6" r="1" fill="#343434" stroke="#343434" stroke-width="1"/></pattern></defs><defs><pattern id="nukpm" patternUnits="userSpaceOnUse" width="13.125" height="7.577722283113838"><path d="M 4.375,0 l 4.375,0 l 2.1875,3.788861141556919 l -2.1875,3.788861141556919 l -4.375,0 l -2.1875,-3.788861141556919 Z M 0,3.788861141556919 l 2.1875,0 M 13.125,3.788861141556919 l -2.1875,0" fill="transparent" stroke-width="1" shape-rendering="auto" stroke="#343434" stroke-linecap="square"/></pattern></defs><filter id="desaturate"><feColorMatrix type="matrix" values="0.3333 0.3333 0.3333 0 0 0.3333 0.3333 0.3333 0 0 0.3333 0.3333 0.3333 0 0 0 0 0 1 0"/></filter></svg>