<svg version="1.1" xmlns="http://www.w3.org/2000/svg"><g transform="translate(40,20)" style="filter: url(&quot;#desaturate&quot;);"><g class="serie" fill="url(#vaino)" stroke="black"><rect x="13" y="439" height="11" width="29"/><rect x="49" y="405" height="45" width="29"/><rect x="85" y="377" height="73" width="29"/><rect x="121" y="366" height="84" width="29"/><rect x="157" y="371" height="79" width="29"/><rect x="193" y="360" height="90" width="29"/><rect x="229" y="383" height="67" width="29"/><rect x="265" y="366" height="84" width="29"/><rect x="301" y="394" height="56" width="29"/><rect x="337" y="377" height="73" width="29"/><rect x="373" y="377" height="73" width="29"/><rect x="409" y="444" height="6" width="29"/></g><g class="serie" fill="url(#yedtb)" stroke="black"><rect x="13" y="416" height="23" width="29"/><rect x="49" y="377" height="28" width="29"/><rect x="85" y="304" height="73" width="29"/><rect x="121" y="225" height="141" width="29"/><rect x="157" y="253" height="118" width="29"/><rect x="193" y="309" height="51" width="29"/><rect x="229" y="338" height="45" width="29"/><rect x="265" y="315" height="51" width="29"/><rect x="301" y="338" height="56" width="29"/><rect x="337" y="298" height="79" width="29"/><rect x="373" y="321" height="56" width="29"/><rect x="409" y="444" height="0" width="29"/></g><g class="serie" fill="url(#fpmqg)" stroke="black"><rect x="13" y="394" height="22" width="29"/><rect x="49" y="366" height="11" width="29"/><rect x="85" y="270" height="34" width="29"/><rect x="121" y="191" height="34" width="29"/><rect x="157" y="219" height="34" width="29"/><rect x="193" y="287" height="22" width="29"/><rect x="229" y="293" height="45" width="29"/><rect x="265" y="270" height="45" width="29"/><rect x="301" y="281" height="57" width="29"/><rect x="337" y="264" height="34" width="29"/><rect x="373" y="304" height="17" width="29"/><rect x="409" y="444" height="0" width="29"/></g><g class="serie" fill="url(#gdwzy)" stroke="black"><rect x="13" y="383" height="11" width="29"/><rect x="49" y="354" height="12" width="29"/><rect x="85" y="248" height="22" width="29"/><rect x="121" y="174" height="17" width="29"/><rect x="157" y="208" height="11" width="29"/><rect x="193" y="270" height="17" width="29"/><rect x="229" y="270" height="23" width="29"/><rect x="265" y="248" height="22" width="29"/><rect x="301" y="242" height="39" width="29"/><rect x="337" y="259" height="5" width="29"/><rect x="373" y="293" height="11" width="29"/><rect x="409" y="444" height="0" width="29"/></g><g class="serie" fill="url(#rexvq)" stroke="black"><rect x="13" y="366" height="17" width="29"/><rect x="49" y="326" height="28" width="29"/><rect x="85" y="225" height="23" width="29"/><rect x="121" y="141" height="33" width="29"/><rect x="157" y="158" height="50" width="29"/><rect x="193" y="225" height="45" width="29"/><rect x="229" y="225" height="45" width="29"/><rect x="265" y="225" height="23" width="29"/><rect x="301" y="191" height="51" width="29"/><rect x="337" y="191" height="68" width="29"/><rect x="373" y="259" height="34" width="29"/><rect x="409" y="444" height="0" width="29"/></g><g class="serie" fill="url(#lcpru)" stroke="black"><rect x="13" y="349" height="17" width="29"/><rect x="49" y="321" height="5" width="29"/><rect x="85" y="214" height="11" width="29"/><rect x="121" y="135" height="6" width="29"/><rect x="157" y="135" height="23" width="29"/><rect x="193" y="208" height="17" width="29"/><rect x="229" y="225" height="0" width="29"/><rect x="265" y="202" height="23" width="29"/><rect x="301" y="191" height="0" width="29"/><rect x="337" y="174" height="17" width="29"/><rect x="373" y="253" height="6" width="29"/><rect x="409" y="444" height="0" width="29"/></g><g class="serie" fill="url(#bsmvy)" stroke="black"><rect x="13" y="332" height="17" width="29"/><rect x="49" y="298" height="23" width="29"/><rect x="85" y="191" height="23" width="29"/><rect x="121" y="129" height="6" width="29"/><rect x="157" y="90" height="45" width="29"/><rect x="193" y="174" height="34" width="29"/><rect x="229" y="208" height="17" width="29"/><rect x="265" y="169" height="33" width="29"/><rect x="301" y="152" height="39" width="29"/><rect x="337" y="146" height="28" width="29"/><rect x="373" y="236" height="17" width="29"/><rect x="409" y="444" height="0" width="29"/></g><g class="serie" fill="url(#uexnn)" stroke="black"><rect x="13" y="298" height="34" width="29"/><rect x="49" y="287" height="11" width="29"/><rect x="85" y="158" height="33" width="29"/><rect x="121" y="118" height="11" width="29"/><rect x="157" y="68" height="22" width="29"/><rect x="193" y="146" height="28" width="29"/><rect x="229" y="180" height="28" width="29"/><rect x="265" y="158" height="11" width="29"/><rect x="301" y="118" height="34" width="29"/><rect x="337" y="113" height="33" width="29"/><rect x="373" y="219" height="17" width="29"/><rect x="409" y="444" height="0" width="29"/></g><g class="serie" fill="url(#fvvai)" stroke="black"><rect x="13" y="281" height="17" width="29"/><rect x="49" y="264" height="23" width="29"/><rect x="85" y="135" height="23" width="29"/><rect x="121" y="107" height="11" width="29"/><rect x="157" y="45" height="23" width="29"/><rect x="193" y="113" height="33" width="29"/><rect x="229" y="141" height="39" width="29"/><rect x="265" y="124" height="34" width="29"/><rect x="301" y="79" height="39" width="29"/><rect x="337" y="79" height="34" width="29"/><rect x="373" y="197" height="22" width="29"/><rect x="409" y="444" height="0" width="29"/></g><g class="serie" fill="url(#wrprd)" stroke="black"><rect x="13" y="259" height="22" width="29"/><rect x="49" y="231" height="33" width="29"/><rect x="85" y="107" height="28" width="29"/><rect x="121" y="56" height="51" width="29"/><rect x="157" y="6" height="39" width="29"/><rect x="193" y="62" height="51" width="29"/><rect x="229" y="96" height="45" width="29"/><rect x="265" y="101" height="23" width="29"/><rect x="301" y="6" height="73" width="29"/><rect x="337" y="39" height="40" width="29"/><rect x="373" y="186" height="11" width="29"/><rect x="409" y="444" height="0" width="29"/></g><g class="axis axis--x" transform="translate(0,450)" fill="none" font-size="10" font-family="sans-serif" text-anchor="middle"><path class="domain" stroke="#000" d="M0.5,6V0.5H450.5V6"/><g class="tick" opacity="1" transform="translate(28,0)"><line stroke="#000" y2="6" x1="0.5" x2="0.5"/><text fill="#000" y="9" x="0.5" dy="0.71em">2005</text></g><g class="tick" opacity="1" transform="translate(64,0)"><line stroke="#000" y2="6" x1="0.5" x2="0.5"/><text fill="#000" y="9" x="0.5" dy="0.71em">2006</text></g><g class="tick" opacity="1" transform="translate(100,0)"><line stroke="#000" y2="6" x1="0.5" x2="0.5"/><text fill="#000" y="9" x="0.5" dy="0.71em">2007</text></g><g class="tick" opacity="1" transform="translate(136,0)"><line stroke="#000" y2="6" x1="0.5" x2="0.5"/><text fill="#000" y="9" x="0.5" dy="0.71em">2008</text></g><g class="tick" opacity="1" transform="translate(172,0)"><line stroke="#000" y2="6" x1="0.5" x2="0.5"/><text fill="#000" y="9" x="0.5" dy="0.71em">2009</text></g><g class="tick" opacity="1" transform="translate(208,0)"><line stroke="#000" y2="6" x1="0.5" x2="0.5"/><text fill="#000" y="9" x="0.5" dy="0.71em">2010</text></g><g class="tick" opacity="1" transform="translate(244,0)"><line stroke="#000" y2="6" x1="0.5" x2="0.5"/><text fill="#000" y="9" x="0.5" dy="0.71em">2011</text></g><g class="tick" opacity="1" transform="translate(280,0)"><line stroke="#000" y2="6" x1="0.5" x2="0.5"/><text fill="#000" y="9" x="0.5" dy="0.71em">2012</text></g><g class="tick" opacity="1" transform="translate(316,0)"><line stroke="#000" y2="6" x1="0.5" x2="0.5"/><text fill="#000" y="9" x="0.5" dy="0.71em">2013</text></g><g class="tick" opacity="1" transform="translate(352,0)"><line stroke="#000" y2="6" x1="0.5" x2="0.5"/><text fill="#000" y="9" x="0.5" dy="0.71em">2014</text></g><g class="tick" opacity="1" transform="translate(388,0)"><line stroke="#000" y2="6" x1="0.5" x2="0.5"/><text fill="#000" y="9" x="0.5" dy="0.71em">2015</text></g><g class="tick" opacity="1" transform="translate(424,0)"><line stroke="#000" y2="6" x1="0.5" x2="0.5"/><text fill="#000" y="9" x="0.5" dy="0.71em">2016</text></g></g><g class="axis axis--y" fill="none" font-size="10" font-family="sans-serif" text-anchor="end"><path class="domain" stroke="#000" d="M-6,450.5H0.5V0.5H-6"/><g class="tick" opacity="1" transform="translate(0,450)"><line stroke="#000" x2="-6" y1="0.5" y2="0.5"/><text fill="#000" x="-9" y="0.5" dy="0.32em">0</text></g><g class="tick" opacity="1" transform="translate(0,394)"><line stroke="#000" x2="-6" y1="0.5" y2="0.5"/><text fill="#000" x="-9" y="0.5" dy="0.32em">10</text></g><g class="tick" opacity="1" transform="translate(0,338)"><line stroke="#000" x2="-6" y1="0.5" y2="0.5"/><text fill="#000" x="-9" y="0.5" dy="0.32em">20</text></g><g class="tick" opacity="1" transform="translate(0,281)"><line stroke="#000" x2="-6" y1="0.5" y2="0.5"/><text fill="#000" x="-9" y="0.5" dy="0.32em">30</text></g><g class="tick" opacity="1" transform="translate(0,225)"><line stroke="#000" x2="-6" y1="0.5" y2="0.5"/><text fill="#000" x="-9" y="0.5" dy="0.32em">40</text></g><g class="tick" opacity="1" transform="translate(0,169)"><line stroke="#000" x2="-6" y1="0.5" y2="0.5"/><text fill="#000" x="-9" y="0.5" dy="0.32em">50</text></g><g class="tick" opacity="1" transform="translate(0,113)"><line stroke="#000" x2="-6" y1="0.5" y2="0.5"/><text fill="#000" x="-9" y="0.5" dy="0.32em">60</text></g><g class="tick" opacity="1" transform="translate(0,56)"><line stroke="#000" x2="-6" y1="0.5" y2="0.5"/><text fill="#000" x="-9" y="0.5" dy="0.32em">70</text></g><g class="tick" opacity="1" transform="translate(0,0)"><line stroke="#000" x2="-6" y1="0.5" y2="0.5"/><text fill="#000" x="-9" y="0.5" dy="0.32em">80</text></g><text transform="translate(10,0)rotate(90)" dy="0.35em" text-anchor="start" fill="#000">Number of Papers</text></g><g class="legend-group" transform="translate(450,0)"><g class="legend" transform="translate(0,0)" style="font: 10px sans-serif;"><rect x="-2" width="18" height="18" fill="url(#vaino)"/><text x="-14" y="9" dy=".35em" text-anchor="end">COM</text></g><g class="legend" transform="translate(0,20)" style="font: 10px sans-serif;"><rect x="-2" width="18" height="18" fill="url(#yedtb)"/><text x="-14" y="9" dy=".35em" text-anchor="end">DEV</text></g><g class="legend" transform="translate(0,40)" style="font: 10px sans-serif;"><rect x="-2" width="18" height="18" fill="url(#fpmqg)"/><text x="-14" y="9" dy=".35em" text-anchor="end">DIS</text></g><g class="legend" transform="translate(0,60)" style="font: 10px sans-serif;"><rect x="-2" width="18" height="18" fill="url(#gdwzy)"/><text x="-14" y="9" dy=".35em" text-anchor="end">ECO</text></g><g class="legend" transform="translate(0,80)" style="font: 10px sans-serif;"><rect x="-2" width="18" height="18" fill="url(#rexvq)"/><text x="-14" y="9" dy=".35em" text-anchor="end">MET</text></g><g class="legend" transform="translate(0,100)" style="font: 10px sans-serif;"><rect x="-2" width="18" height="18" fill="url(#lcpru)"/><text x="-14" y="9" dy=".35em" text-anchor="end">OTH</text></g><g class="legend" transform="translate(0,120)" style="font: 10px sans-serif;"><rect x="-2" width="18" height="18" fill="url(#bsmvy)"/><text x="-14" y="9" dy=".35em" text-anchor="end">POL</text></g><g class="legend" transform="translate(0,140)" style="font: 10px sans-serif;"><rect x="-2" width="18" height="18" fill="url(#uexnn)"/><text x="-14" y="9" dy=".35em" text-anchor="end">PRD</text></g><g class="legend" transform="translate(0,160)" style="font: 10px sans-serif;"><rect x="-2" width="18" height="18" fill="url(#fvvai)"/><text x="-14" y="9" dy=".35em" text-anchor="end">SOC</text></g><g class="legend" transform="translate(0,180)" style="font: 10px sans-serif;"><rect x="-2" width="18" height="18" fill="url(#wrprd)"/><text x="-14" y="9" dy=".35em" text-anchor="end">USG</text></g></g></g><defs><pattern id="vaino" patternUnits="userSpaceOnUse" width="5" height="5"><path d="M 0,5 l 5,-5 M -1.25,1.25 l 2.5,-2.5 M 3.75,6.25 l 2.5,-2.5" stroke-width="1" shape-rendering="auto" stroke="#343434" stroke-linecap="square"/></pattern></defs><defs><pattern id="yedtb" patternUnits="userSpaceOnUse" width="10" height="10"><circle cx="5" cy="5" r="2" fill="transparent" stroke="#343434" stroke-width="1"/><circle cx="0" cy="0" r="2" fill="transparent" stroke="#343434" stroke-width="1"/><circle cx="0" cy="10" r="2" fill="transparent" stroke="#343434" stroke-width="1"/><circle cx="10" cy="0" r="2" fill="transparent" stroke="#343434" stroke-width="1"/><circle cx="10" cy="10" r="2" fill="transparent" stroke="#343434" stroke-width="1"/></pattern></defs><defs><pattern id="fpmqg" patternUnits="userSpaceOnUse" width="5" height="5"><path d="M 0,0 l 5,5 M -1.25,3.75 l 2.5,2.5 M 3.75,-1.25 l 2.5,2.5" stroke-width="1" shape-rendering="auto" stroke="#343434" stroke-linecap="square"/></pattern></defs><defs><pattern id="gdwzy" patternUnits="userSpaceOnUse" width="6.666666666666667" height="6.666666666666667"><path d="M 1.6666666666666667,1.6666666666666667l3.3333333333333335,3.3333333333333335M5,1.6666666666666667l3.3333333333333335,-3.3333333333333335 M1.6666666666666667,5l-3.3333333333333335,3.3333333333333335M5,8.333333333333334l3.3333333333333335,-3.3333333333333335 M-1.6666666666666667,1.6666666666666667l3.3333333333333335,-3.3333333333333335" fill="transparent" stroke-width="1" shape-rendering="auto" stroke="#343434" stroke-linecap="square"/></pattern></defs><defs><pattern id="rexvq" patternUnits="userSpaceOnUse" width="8" height="8"><path d="M 2 2 l 4 0 l 0 4 l -4 0 Z" fill="transparent" stroke-width="1" shape-rendering="auto" stroke="#343434" stroke-linecap="square"/></pattern></defs><defs><pattern id="lcpru" patternUnits="userSpaceOnUse" width="6" height="6"><path d="M 0,6 l 6,-6 M -1.5,1.5 l 3,-3 M 4.5,7.5 l 3,-3" stroke-width="1" shape-rendering="auto" stroke="#343434" stroke-linecap="square"/><path d="M 0,0 l 6,6 M -1.5,4.5 l 3,3 M 4.5,-1.5 l 3,3" stroke-width="1" shape-rendering="auto" stroke="#343434" stroke-linecap="square"/></pattern></defs><defs><pattern id="bsmvy" patternUnits="userSpaceOnUse" width="4" height="4"><path d="M 0,2 l 4,0" stroke-width="1" shape-rendering="auto" stroke="#343434" stroke-linecap="square"/><path d="M 2, 0 l 0, 4" stroke-width="1" shape-rendering="auto" stroke="#343434" stroke-linecap="square"/></pattern></defs><defs><pattern id="uexnn" patternUnits="userSpaceOnUse" width="3.3333333333333335" height="3.3333333333333335"><circle cx="1.6666666666666667" cy="1.6666666666666667" r="1" fill="#343434" stroke="#343434" stroke-width="0"/></pattern></defs><defs><pattern id="fvvai" patternUnits="userSpaceOnUse" width="7" height="7"><path d="M 1.75,1.75l3.5,3.5M1.75,5.25l3.5,-3.5" fill="transparent" stroke-width="1" shape-rendering="auto" stroke="#343434" stroke-linecap="square"/></pattern></defs><defs><pattern id="wrprd" patternUnits="userSpaceOnUse" width="7" height="7"><circle cx="3.5" cy="3.5" r="3" fill="transparent" stroke="#343434" stroke-width="1"/></pattern></defs><defs><pattern id="oihew" patternUnits="userSpaceOnUse" width="6" height="6"><circle cx="3" cy="3" r="1" fill="#343434" stroke="#343434" stroke-width="1"/><circle cx="0" cy="0" r="1" fill="#343434" stroke="#343434" stroke-width="1"/><circle cx="0" cy="6" r="1" fill="#343434" stroke="#343434" stroke-width="1"/><circle cx="6" cy="0" r="1" fill="#343434" stroke="#343434" stroke-width="1"/><circle cx="6" cy="6" r="1" fill="#343434" stroke="#343434" stroke-width="1"/></pattern></defs><defs><pattern id="fzqlz" patternUnits="userSpaceOnUse" width="13.125" height="7.577722283113838"><path d="M 4.375,0 l 4.375,0 l 2.1875,3.788861141556919 l -2.1875,3.788861141556919 l -4.375,0 l -2.1875,-3.788861141556919 Z M 0,3.788861141556919 l 2.1875,0 M 13.125,3.788861141556919 l -2.1875,0" fill="transparent" stroke-width="1" shape-rendering="auto" stroke="#343434" stroke-linecap="square"/></pattern></defs><filter id="desaturate"><feColorMatrix type="matrix" values="0.3333 0.3333 0.3333 0 0 0.3333 0.3333 0.3333 0 0 0.3333 0.3333 0.3333 0 0 0 0 0 1 0"/></filter></svg>